<svg width="773" height="851" viewBox="0 0 773 851" fill="none" xmlns="http://www.w3.org/2000/svg">
<circle cx="589.472" cy="592.604" r="116.816" stroke="#141525" stroke-width="20"/>
<circle cx="8.8314" cy="126.816" r="113.316" stroke="#FF4F00" stroke-width="27"/>
<path d="M536.442 320.628C543.621 323.769 551.596 324.616 561.167 324.616C570.737 324.616 589.88 325.254 593.07 315.045C596.261 304.836 586.499 299.125 576.13 302.315C576.662 298.061 573.928 288.725 561.167 288.725C549.664 288.725 546.279 297.529 546.013 302.315C530.061 296.701 523.681 315.046 536.442 320.628Z" fill="#EAEAEA"/>
<path d="M-293.921 592.216L-307.854 560.426C-305.286 559.294 -244.029 532.863 -163.845 538.516C-89.5263 543.764 15.3359 578.577 92.8304 714.692L62.6657 731.866C6.83556 633.803 -69.7374 580.425 -164.893 573.236C-236.821 567.802 -293.363 591.971 -293.921 592.216Z" fill="#050527"/>
<path d="M74.233 272.773C82.2089 416.338 8.29947 439.468 -11.1084 446.647V559.904C18.4022 551.928 78.3222 533.206 118.1 483.335C171.538 416.338 167.284 335.251 169.145 305.474L74.233 272.773Z" fill="url(#paint0_linear_4568_17207)" fill-opacity="0.5"/>
<g opacity="0.25">
<path opacity="0.5" d="M122.088 269.583C149.206 374.864 94.1959 460.197 22.9971 496.443C-15.5869 514.003 -58.1448 505.416 -74.9148 505.668" stroke="#050527" stroke-width="7" stroke-miterlimit="10" stroke-dasharray="20 20"/>
</g>
<path d="M89.7945 542.357C96.9733 545.497 104.949 546.345 114.519 546.345C124.09 546.345 143.233 546.983 146.423 536.774C149.613 526.565 139.851 520.853 129.482 524.043C130.014 519.789 127.281 510.453 114.519 510.453C103.016 510.453 99.6313 519.258 99.3655 524.043C83.414 518.429 77.0331 536.774 89.7945 542.357Z" fill="#EAEAEA"/>
<g clip-path="url(#clip0_4568_17207)">
<path d="M690.028 481.831L709.149 497.831L749.329 443.225C749.329 443.225 743.799 438.451 736.275 443.736C731.091 447.376 707.395 461.861 701.449 460.977L690.028 481.831Z" fill="#E8A844"/>
<path d="M461.334 578.891L480.222 596.929C480.222 596.929 488.041 630.542 491.633 636.549C495.226 642.557 488.729 648.062 488.729 648.062L436.134 593.947L461.334 578.891Z" fill="#BD8800"/>
<path d="M493.458 405.128C493.458 405.128 596.538 401.903 614.67 409.246C632.802 416.589 701.463 460.976 701.463 460.976L690.042 481.829C690.042 481.829 619.924 450.833 602.264 447.875C584.605 444.918 509.349 446.889 509.349 446.889L464.409 427.562C464.381 427.565 486.592 414.864 493.458 405.128Z" fill="#02060F"/>
<path d="M435.334 425.815C435.334 425.815 442.413 470.927 472.387 479.518C517.733 492.526 531.074 506.192 531.074 506.192L461.335 578.891L479.826 598.126C479.826 598.126 568.263 522.916 572.567 515.384C581.244 500.189 572.035 485.012 561.327 479.019C551.041 473.248 489.972 426.758 484.212 423.193C483.978 423.05 489.769 422.885 489.509 422.91L435.334 425.815Z" fill="#3A4057"/>
<path d="M143.471 589.677L146.726 607.505L82.3291 610.251L87.9683 598.492L129.869 594.726L143.471 589.677Z" fill="#EF6238"/>
<path d="M90.8678 589.396L97.9207 592.783L101.303 585.711L117.522 579.765C117.522 579.765 133.342 584.843 129.319 596.628C129.319 596.628 122.272 602.433 114.691 599.29C106.764 596 87.9824 599.223 83.5135 610.815C83.5135 610.815 56.4708 614.479 52.5324 614.398C48.5939 614.317 51.7832 604.641 61.1851 600.102C70.5747 595.579 90.8678 589.396 90.8678 589.396Z" fill="#061B21"/>
<path d="M265.407 671.853L277.376 685.442L223.62 721.022L222.385 708.04L256.349 683.192L265.407 671.853Z" fill="#EF6238"/>
<path d="M220.191 698.752L227.969 698.012L227.227 690.215L238.055 676.747C238.055 676.747 254.215 672.932 256.85 685.118C256.85 685.118 254.038 692.384 246.653 694.785C236.271 698.147 222.776 708.665 224.921 720.912C224.921 720.912 203.638 737.997 200.225 739.964C196.812 741.931 194.556 731.987 200.276 723.257C205.982 714.515 220.191 698.752 220.191 698.752Z" fill="#061B21"/>
<path d="M359.182 280.397C359.182 280.397 351.892 272.063 339.955 274.593C330.801 276.527 328.739 282.245 329.592 285.269C329.986 286.654 331.44 287.44 332.823 287.046C335.737 286.217 340.859 285.108 343.624 286.488C347.636 288.494 342.14 288.713 339.822 289.141C336.867 289.684 338.835 292.106 339.326 292.045C339.817 291.985 343.365 292.31 346.259 291.275C349.154 290.241 353.84 292.528 353.84 292.528C353.84 292.528 363.474 284.778 359.182 280.397Z" fill="#E9AA44"/>
<path d="M485.431 272.813C485.431 272.813 485.279 221.355 477.257 207.929C469.235 194.502 462.127 191.121 462.127 191.121C462.127 191.121 464.6 188.552 467.922 189.838C471.244 191.123 473.918 198.639 475.634 197.248C477.349 195.856 474.476 169.144 474.476 169.144C474.476 169.144 474.801 166.035 476.949 166.576C479.097 167.117 478.865 184.393 480.796 183.961C482.728 183.528 483.378 168.186 485.31 167.768C487.241 167.335 498.817 173.895 499.343 180.871C499.868 187.846 491.4 197.845 494.289 206.322C497.178 214.798 508.29 251.272 508.755 260.794L485.431 272.813Z" fill="#E7AFA5"/>
<path d="M397.258 330.206C397.258 330.206 376.913 296.129 383.836 269.313C385.47 263.001 398.071 247.295 397.495 239.358C396.919 231.42 394.612 232.689 394.612 232.689L390.674 246.094C390.674 246.094 388.626 246.454 389.42 243.784C390.213 241.1 393.358 230.379 393.358 230.379C393.358 230.379 388.628 229.959 385.224 241.574C381.819 253.19 381.025 255.86 378.344 255.08C375.662 254.286 368.742 241.569 364.373 243.2C364.373 243.2 363.58 245.884 365.468 249.348C367.356 252.813 372.402 262.064 372.084 269.741C371.767 277.419 365.961 298.152 367.738 310.157C372.206 340.444 390.534 351.579 390.534 351.579L397.258 330.206Z" fill="#E7AFA5"/>
<path d="M430.509 315.406L430.237 330.367C430.237 330.367 435.941 336.684 444.432 332.715C452.922 328.746 452.118 317.394 452.118 317.394L446.732 311.088L430.509 315.406Z" fill="#E59F96"/>
<path d="M452.563 316.854C452.563 316.854 460.957 315.642 470.325 308.856C484.671 298.45 485.566 270.744 485.566 270.744L508.966 259.531C508.966 259.531 516.693 294.781 501.027 317.129C487.367 336.635 477.139 349.162 484.609 371.71C492.233 394.726 496.963 403.842 496.963 403.842C496.963 403.842 500.11 416.636 484.609 423.315C469.837 429.69 455.847 427.852 435.332 425.802C432.764 425.77 431.648 414.764 428.788 403.994C423.736 384.957 420.066 376.693 415.066 360.232C415.066 360.232 407.359 360.841 388.608 350.188L393.454 322.99C393.454 322.99 408.178 340.458 415.366 332.665C421.906 325.583 430.534 324.362 430.534 324.362C430.534 324.362 430.216 332.909 436.467 332.645C450.326 332.044 452.563 316.854 452.563 316.854Z" fill="#FF4F00"/>
<path d="M443.206 314.474C443.206 314.474 436.267 318.074 425.284 314.412C420.997 312.984 420.971 299.667 420.971 299.667L416.199 293.73L427.6 285.26L430.135 270.304L461.508 297.797L451.881 311.136L448.554 310.086L443.206 314.474Z" fill="#E7AFA5"/>
<path d="M431.654 254.976C429.816 252.611 427.975 262.835 429.74 266.021L425.064 262.105C425.064 262.105 421.341 269.071 428.615 280.291C435.031 290.171 440.155 293.148 445.817 293.368C448.627 293.473 447.249 301.169 450.62 296.003C452.883 292.544 458.608 294.732 455.15 300.997C453.797 303.444 452.631 302.506 451.483 302.905C447.519 304.29 446.997 310.689 451.103 311.513C451.27 311.539 454.547 311.186 457.736 309.474C466.91 304.571 473.808 294.887 473.141 285.992C472.602 278.879 466 266.891 447.659 268.664C442.208 269.211 435.127 259.435 431.654 254.976Z" fill="#02060F"/>
<path d="M433.923 293.741C433.923 293.741 431.951 293.887 429.832 292.06C427.713 290.232 428.554 288.192 428.554 288.192" stroke="black" stroke-miterlimit="10"/>
<path d="M301.017 322.966C300.083 325.913 297.169 329.489 289.959 328.519C281.688 327.401 270.802 329.969 265.425 337.23C260.033 344.493 257.696 349.953 256.759 357.766C256.183 369.617 256.409 377.276 253.271 386.34C249.029 398.573 236.994 413.121 205.891 405.867C211.574 407.176 197.564 402.711 171.021 391.627C162.676 388.142 152.491 377.199 146.922 364.768C142.667 355.276 141.785 332.819 159.57 325.936C159.57 325.936 158.415 315.39 171.097 305.17C183.778 294.949 207.571 298.579 216.533 303.772C225.509 308.964 236.451 304.513 240.749 299.825C245.061 295.136 250.542 283.019 262.291 281.984C276.872 280.707 284.264 288.672 287.256 290.402C289.213 291.541 290.79 307.679 297.947 314.48C301.448 317.79 301.695 320.818 301.017 322.966Z" fill="#23286B"/>
<path d="M281.703 318.137C281.703 318.137 256.559 316.679 242.886 335.041" stroke="#0A0E3A" stroke-miterlimit="10"/>
<path d="M261.869 314.793C261.869 314.793 255.781 311.107 245.745 315.223C235.724 319.338 231.307 325.68 222.508 328.588C213.71 331.496 206.15 328.295 206.15 328.295" stroke="#0A0E3A" stroke-miterlimit="10"/>
<path d="M216.409 324.931C216.409 324.931 193.421 299.028 170.055 308.858" stroke="#0A0E3A" stroke-miterlimit="10"/>
<path d="M152.955 372.945C152.955 372.945 170.524 391.619 181.383 373.842C189.82 360.037 175.04 341.387 164.232 341.877" stroke="#0A0E3A" stroke-miterlimit="10"/>
<path d="M160.532 325.9C160.532 325.9 171.485 318.674 189.662 325.184" stroke="#0A0E3A" stroke-miterlimit="10"/>
<path d="M260.507 333.53C257.828 332.915 250.242 335.818 243.726 348.212C235.678 363.499 239.751 378.765 227.341 386.916C211.453 397.359 181.063 388.449 181.063 388.449C181.063 388.449 212.273 407.855 232.123 399.478C246.629 393.363 251.299 377.21 251.453 366.802C251.62 355.66 252.017 347.948 260.779 340.019C263.495 337.538 262.876 334.077 260.507 333.53Z" fill="#0A0E3A"/>
<path d="M173.129 371.025C171.765 371.183 169.904 370.614 170.57 366.161C171.235 361.709 169.431 358.692 166.25 356.427C163.528 354.491 165.814 350.105 166.936 349.571C168.057 349.036 170.848 347.639 175.423 352.669C179.983 357.688 178.757 364.803 177.468 367.341C176.178 369.879 174.548 370.863 173.129 371.025Z" fill="#0A0E3A"/>
<path d="M276.645 291.95C276.645 291.95 261.006 290.802 252.328 301.787C240.979 316.16 229.957 318.741 220.64 314.755C213.048 311.502 208.064 305.213 208.064 305.213C208.064 305.213 226.48 316.408 238.081 308.747C248.398 301.94 249.415 293.644 260.791 289.843C270.322 286.658 276.645 291.95 276.645 291.95Z" fill="#0A0E3A"/>
<path d="M287.051 439.995C287.051 439.995 272.888 437.685 256.014 473.137C243.394 499.653 255.46 546.885 235.467 556.794C219.095 564.909 138.642 587.486 138.642 587.486L140.833 610.509C140.833 610.509 236.852 594.401 255.636 586.995C283.14 576.151 313.484 499.926 313.484 499.926C313.484 499.926 334.349 518.88 330.356 569.242C327.713 602.636 290.726 649.926 263.178 670.45L275.51 689.167C275.51 689.167 345.808 642.627 367.59 592.671C381.469 560.831 381.453 528.629 372.733 497.725C362.062 459.939 331.239 433.885 331.239 433.885C331.239 433.885 306.531 438.887 287.051 439.995Z" fill="#1D7DF4"/>
<path d="M266.914 484.191C266.914 484.191 293.134 477.679 288.579 447.497" stroke="#FFE7B4" stroke-miterlimit="10"/>
<path d="M320.041 187.07L322.138 209.108" stroke="#103452" stroke-width="2" stroke-miterlimit="10"/>
<path d="M356.077 179.942L338.664 217.404" stroke="#103452" stroke-width="2" stroke-miterlimit="10"/>
<path d="M373.868 208.188L355.279 227.059" stroke="#103452" stroke-width="2" stroke-miterlimit="10"/>
<path d="M152.001 400.311C152.001 400.311 138.045 391.204 137.122 381.505C136.201 371.82 142.402 370.899 144.894 370.993C147.385 371.087 147.979 373.846 148.151 375.652C148.323 377.458 150.244 383.735 154.212 383.689C154.212 383.689 152.735 380.351 153.759 378.928C154.782 377.506 156.445 379.335 157.32 381.571C158.195 383.806 161.718 387.778 163.045 387.817C163.073 387.815 162.762 398.459 152.001 400.311Z" fill="#E9AA44"/>
<path d="M287.589 334.196C287.589 334.196 278.841 333.138 267.675 345.519C256.51 357.914 257.213 373.707 252.237 385.472C247.971 395.582 236.324 409.569 210.645 404.807C184.979 400.044 160.914 387.454 160.914 387.454C160.914 387.454 156.287 398.261 152.346 400.182C152.346 400.182 192.478 429.711 222.689 428.465C251.869 427.262 265.228 418.22 273.307 389.637C281.4 361.053 284.847 381.761 285.866 386.385C290.82 409.021 281.161 440.859 281.161 440.859C281.161 440.859 313.801 444.13 333.214 436.817C340.95 433.9 345.291 374.726 339.323 355.21C339.323 355.21 373.735 357.815 379.661 333.565C384.583 313.399 378.122 291.017 358.552 280.015L353.869 292.539C353.869 292.539 366.958 309.651 362.102 323.696C357.829 336.043 338.415 332.479 333.107 330.9C327.756 329.311 311.146 327.386 302.529 328.716C293.87 330.051 302.738 331.209 287.589 334.196Z" fill="#C5C5C5"/>
<path d="M277.788 321.643L289.314 334.778C289.314 334.778 296.13 337.566 299.17 336.173C302.209 334.779 302.976 333.85 302.976 333.85L297.591 322.34C297.591 322.34 299.904 319.539 300.104 312.659C300.252 307.538 298.646 297.338 289.577 292.183C280.508 287.028 281.599 289.505 280.832 290.434C280.065 291.363 277.914 295.86 275.358 296.104C272.802 296.347 267.784 297.68 267.18 300.319C266.576 302.958 272.08 306.727 271.474 309.352C270.87 311.99 271.879 313.606 271.879 313.606C271.879 313.606 267.887 312.385 266.861 314.939C266.125 316.762 267.59 322.6 273.55 322.033C279.509 321.466 277.788 321.643 277.788 321.643Z" fill="#E9AA44"/>
<path d="M294.255 309.889C297.09 308.957 297.465 312.027 295.92 313.899C294.387 315.771 289.751 311.394 294.255 309.889Z" fill="#F17C3A" stroke="black" stroke-miterlimit="10"/>
<path d="M291.102 308.353C291.102 308.353 293.577 307.262 293.414 305.552" stroke="black" stroke-miterlimit="10"/>
<path d="M278.306 300.116C278.306 300.116 275.146 302.998 274.46 304.775" stroke="black" stroke-miterlimit="10"/>
<path d="M284.983 304.201C284.983 304.201 281.562 304.913 281.137 308.86" stroke="black" stroke-miterlimit="10"/>
<path d="M285.555 295.133C285.555 295.133 287.95 293.194 289.644 293.032" stroke="black" stroke-miterlimit="10"/>
<path d="M289.163 301.015C289.163 301.015 290.612 298.558 292.837 299.478" stroke="black" stroke-miterlimit="10"/>
<path d="M277.788 321.643L280.4 321.408L296.794 336.578L290.283 336.273L277.788 321.643Z" fill="#C68628"/>
<path d="M270.06 297.533C270.06 297.533 268.589 299.467 269.68 301.944C270.771 304.422 273.55 308.409 273.55 308.409L274.861 311.9L271.865 313.607C271.263 312.933 271.173 311.258 271.514 308.754C271.766 306.908 267.487 303.975 267.121 300.849C266.884 298.649 270.06 297.533 270.06 297.533Z" fill="#C68628"/>
<path d="M267.868 316.679L270.391 315.363L272.586 316.396C272.586 316.396 270.374 317.352 271.034 318.932C271.533 320.113 275.059 318.756 275.059 318.756L275.491 320.399C275.491 320.399 273.051 321.28 271.617 321.002C267.755 320.265 267.868 316.679 267.868 316.679Z" fill="#C68628"/>
<path d="M268.398 317.319C268.398 317.319 267.871 316.127 269.486 315.559C272.008 314.67 273.051 316.932 273.051 316.932C273.051 316.932 270.365 316.538 270.651 318.527C270.86 319.997 274.142 319.409 274.142 319.409" stroke="black" stroke-miterlimit="10"/>
<path d="M297.107 302.62L308.073 310.162L308.518 298.897L349.902 251.147C349.902 251.147 337.662 226.293 310.353 231.514L304.084 297.663L297.107 302.62Z" fill="#103452"/>
<path d="M346.424 252.141C346.424 252.141 326.478 252.258 312.615 234.556" stroke="white" stroke-miterlimit="10"/>
<path d="M430.17 307.197L422.969 301.243C422.969 301.243 421.304 306.937 423.699 308.917C426.095 310.898 430.17 307.197 430.17 307.197Z" fill="#F17C3A" stroke="black" stroke-miterlimit="10"/>
<path d="M289.268 338.647C289.268 338.647 273.775 342.371 267.906 362.006C263.5 376.726 259.597 389.768 252.683 397.549C249.381 401.259 244.678 403.432 239.73 403.903L233.469 404.498C233.469 404.498 250.16 400.025 255.209 383.947C259.454 370.443 262.607 349.797 276.108 340.079C287.544 331.84 289.268 338.647 289.268 338.647Z" fill="#E4E6F3"/>
<path d="M339.668 353.327L344.465 345.61C344.465 345.61 371.359 348.793 379.272 325.996C379.272 325.996 378.116 345.307 359.339 350.889C344.717 355.221 339.668 353.327 339.668 353.327Z" fill="#E4E6F3"/>
<path d="M277.784 373.779C277.784 373.779 283.268 364.299 289.303 372.213C297.527 382.97 293.929 430.672 287.747 438.038L283.073 438.483C283.073 438.483 288.915 424.8 288.781 398.034C288.741 389.493 287.941 379.051 284.556 375.081C282.553 372.731 277.784 373.779 277.784 373.779Z" fill="#E4E6F3"/>
<path d="M283.972 447.935C283.972 447.935 266.979 462.997 265.827 494.799C264.514 531.158 251.612 555.147 243.792 557.327C243.792 557.327 252.017 545.488 252.791 532.756C253.759 516.542 251.947 485.615 262.055 467.344C269.634 453.648 280.145 444.089 280.145 444.089L283.972 447.935Z" fill="#0D6BDE"/>
<path d="M318.311 499.343C318.311 499.343 353.345 512.407 349.626 557.677C345.907 602.947 285.381 655.928 285.381 655.928C285.381 655.928 339.858 597.353 336.655 554.853C333.896 518.178 318.311 499.343 318.311 499.343Z" fill="#0D6BDE"/>
<path d="M477.842 209.005C477.842 209.005 480.794 208.724 482.255 211.76C486.828 221.263 492.85 244.252 494.442 266.49L485.565 270.744C485.565 270.744 485.612 226.596 477.842 209.005Z" fill="#E9AA44"/>
<path d="M451.075 321.8C451.075 321.8 466.469 321.384 475.659 312.296C484.848 303.209 495.322 275.585 494.429 266.491L485.552 270.745C485.552 270.745 483.593 300.595 471.223 308.15C458.853 315.704 452.549 316.856 452.549 316.856L451.075 321.8Z" fill="#F4550D"/>
<path d="M435.063 332.53C435.063 332.53 426.309 336.193 422.805 340.391C419.971 343.794 405.545 347.721 401.589 338.463C397.645 329.203 391.902 331.751 391.902 331.751L393.468 322.989C393.468 322.989 403.824 334.702 410.261 334.67C416.604 334.646 418.395 325.793 430.548 324.36C430.548 324.36 429.275 329.823 435.063 332.53Z" fill="#F4550D"/>
<path d="M453.61 427.568C453.61 427.568 462.241 454.644 470.141 461.277C478.041 467.91 509.633 481.619 515.95 486.843C522.268 492.067 524.945 495.705 524.945 495.705L534.536 496.628L528.27 501.807L550.167 499.723L535.278 504.577L544.413 516.793L535.669 508.681L532.785 508.955L532.545 503.829C532.545 503.829 520.039 496.765 517.445 495.452C514.853 494.153 491.282 480.384 481.954 479.463C472.612 478.544 457.971 469.488 452.278 458.504C446.585 447.52 441.493 427.493 441.493 427.493L453.61 427.568Z" fill="#292E41"/>
<path d="M554.922 443.891C554.922 443.891 595.768 441.219 598.952 441.634C602.138 442.062 600.131 436.193 600.131 436.193L604.702 443.502L609.662 432.139L607.819 443.206L619.327 442.11L613.322 445.097L684.915 475.788L682.044 476.061C682.044 476.061 611.928 448.129 603.809 446.721C595.689 445.312 554.922 443.891 554.922 443.891Z" fill="#292E41"/>
</g>
<defs>
<linearGradient id="paint0_linear_4568_17207" x1="-148.293" y1="669.173" x2="130.064" y2="326.212" gradientUnits="userSpaceOnUse">
<stop stop-color="#1B236D"/>
<stop offset="1" stop-color="#C4C4C4" stop-opacity="0"/>
</linearGradient>
<clipPath id="clip0_4568_17207">
<rect width="711.347" height="576.612" fill="white" transform="translate(9.62891 179.051) rotate(-5.43603)"/>
</clipPath>
</defs>
</svg>
